<?xml version="1.0" encoding="utf-8"?>
<!-- Generator: Adobe Illustrator 24.1.1, SVG Export Plug-In . SVG Version: 6.00 Build 0)  -->
<svg version="1.1" id="Layer_2" xmlns="http://www.w3.org/2000/svg" xmlns:xlink="http://www.w3.org/1999/xlink" x="0px" y="0px"
	 viewBox="0 0 40.9 46.7" style="enable-background:new 0 0 40.9 46.7;" xml:space="preserve">
<style type="text/css">
	.st0{fill:#F5E9D0;}
</style>
<g>
	<g>
		<g>
			<path class="st0" d="M25.4,5.1c-3.2,0.2-6.5,0.2-9.9,0c-0.8,4.4-1.9,7.8-3.1,10.2l5.1-0.1c0,0-0.4-1-0.4-1.5
				c0-1.8,1.5-3.3,3.3-3.3c1.8,0,3.3,1.5,3.3,3.3c0,0.5-0.4,1.5-0.4,1.5l5.1,0.1C27.3,12.9,26.2,9.5,25.4,5.1z"/>
		</g>
		<g>
			<path class="st0" d="M28.5,31.4l-5.1,0.1c0,0,0.4,1,0.4,1.5c0,1.8-1.5,3.3-3.3,3.3c-1.8,0-3.3-1.5-3.3-3.3c0-0.5,0.4-1.5,0.4-1.5
				l-5.1-0.1c1.3,2.4,2.3,5.8,3.1,10.2c3.4-0.2,6.7-0.2,9.9,0C26.2,37.3,27.3,33.8,28.5,31.4z"/>
		</g>
	</g>
	<g>
		<g>
			<path class="st0" d="M2.2,18.4c0.2,3.2,0.2,6.5,0,9.9c4.4,0.8,7.8,1.9,10.2,3.1l-0.1-5.1c0,0-1,0.4-1.5,0.4
				c-1.8,0-3.3-1.5-3.3-3.3c0-1.8,1.5-3.3,3.3-3.3c0.5,0,1.5,0.4,1.5,0.4l0.1-5.1C10,16.5,6.6,17.6,2.2,18.4z"/>
		</g>
		<g>
			<path class="st0" d="M28.5,15.3l0.1,5.1c0,0,1-0.4,1.5-0.4c1.8,0,3.3,1.5,3.3,3.3c0,1.8-1.5,3.3-3.3,3.3c-0.5,0-1.5-0.4-1.5-0.4
				l-0.1,5.1c2.4-1.3,5.8-2.3,10.2-3.1c-0.2-3.4-0.2-6.7,0-9.9C34.4,17.6,30.9,16.5,28.5,15.3z"/>
		</g>
	</g>
</g>
</svg>
