<?xml version="1.0" encoding="utf-8"?>
<!-- Generator: Adobe Illustrator 24.1.1, SVG Export Plug-In . SVG Version: 6.00 Build 0)  -->
<svg version="1.1" id="Layer_2" xmlns="http://www.w3.org/2000/svg" xmlns:xlink="http://www.w3.org/1999/xlink" x="0px" y="0px"
	 viewBox="0 0 136.4 57.3" style="enable-background:new 0 0 136.4 57.3;" xml:space="preserve">
<style type="text/css">
	.st0{fill:#F5E9D0;}
</style>
<g>
	<g>
		<path class="st0" d="M62.5,43.6h-7.6c0,0,0-3.8-0.1-6.3c-1.2-0.1-2.3-0.1-3.5,0c-0.1,2.6-0.1,6.3-0.1,6.3h-7.6
			c1.5-7.1,2.7-17.1,3.7-30c0,0.2,11.6,0.2,11.6,0C59.8,26.5,61,36.5,62.5,43.6z M54.6,33.7c-0.3-4.8-0.8-9.6-1.4-14.4h-0.2
			c-0.7,4.8-1.1,9.6-1.4,14.4C52.5,33.8,53.5,33.8,54.6,33.7z"/>
		<path class="st0" d="M20.3,43.6h-7.6c0,0,0-3.8-0.1-6.3c-1.2-0.1-2.3-0.1-3.5,0C9,39.8,9,43.6,9,43.6H1.4c1.5-7.1,2.7-17.1,3.7-30
			c0,0.2,11.6,0.2,11.6,0C17.6,26.5,18.8,36.5,20.3,43.6z M12.4,33.7c-0.3-4.8-0.8-9.6-1.4-14.4h-0.2c-0.7,4.8-1.1,9.6-1.4,14.4
			C10.4,33.8,11.4,33.8,12.4,33.7z"/>
		<path class="st0" d="M39.8,33.4c0.3,1.1,0.5,2.3,0.6,3.5l0.4,3.7c0.2,1.3,0.1,3.1,0.1,3.1h-7.3c0.1-2.3,0.1-4.4,0.1-6.3
			c0-3.7-1.3-6.3-3.4-6.7c0,4-0.3,8.4,0.1,13h-7.3c0.4,0,0.4-30,0-30h7.3c-0.5,5.6-0.2,10.2-0.2,13.8c1.7-0.1,2.5-2.2,2.9-4.4
			c0.1-0.7,0.5-8,0.4-9.4H41c0,0-0.1,2.1-0.3,3.5L40.3,21c-0.3,3.3-1.5,7.1-5.3,7.9C37.6,29.4,39.2,31.1,39.8,33.4z"/>
		<path class="st0" d="M65.4,43.6c0.3-3.9,0.3-7.5,0-10.9l0.2-0.1c0.8,1.4,1.7,2.7,2.7,3.7c1.1,1,2.1,1.5,3,1.5
			c1.2,0,1.9-0.7,1.9-1.9c0-0.7-0.2-1.3-0.6-1.9c-0.8-1.2-2.1-1.9-3.5-3.2c-0.7-0.7-1.4-1.3-2-2c-1.2-1.5-2.1-4-2.1-7
			c0-2.6,0.7-4.7,2.1-6.2c1.4-1.5,3.3-2.3,5.7-2.3c0.7,0,6.1,0.3,6.2,0.3c-0.3,3-0.3,6.1,0,9.4l-0.2,0.1c-1.9-2.3-4.2-3.4-5.9-3.4
			c-1,0-1.6,0.6-1.6,1.5c0,1.8,2.1,2.9,4.2,4.9c0.7,0.7,1.4,1.4,2,2.2c1.3,1.6,2.2,4.2,2.2,7.2c0,2.4-0.7,4.5-2.1,6.1
			c-1.4,1.6-3.4,2.4-5.9,2.4C71.3,43.9,65.4,43.6,65.4,43.6z"/>
		<path class="st0" d="M83.7,13.7h7.8v30h-7.8C83.9,43.6,83.9,13.7,83.7,13.7z"/>
		<path class="st0" d="M110.4,22.7l-0.2,0.1c-1.8-1.4-4.2-2.3-7.2-2.5c-0.1,2.3-0.1,5.2,0,8.6c2.2-0.1,4.1-0.5,5.6-1.4l0.1,0.1
			c-0.2,0.9-0.3,2.1-0.3,3.6c0,1.5,0.1,2.8,0.3,3.8l-0.1,0.1c-1.7-0.9-3.6-1.5-5.5-1.6c0.2,3.2,0.5,6.6,1,10.1h-8.2V13.6h14.5
			C110.1,16.5,110.1,19.6,110.4,22.7z"/>
		<g>
			<path class="st0" d="M120.2,30.8l-8.6-17.1h8.7c0,0,1.6,9.2,3.1,12.1c1.5-2.9,2.8-12.1,2.8-12.1h8.7l-8.2,17.1
				c0,2.7,0.2,4.3,0.4,7l0.6,5.9h-8.6l0.6-5.9C120,35.1,120.1,33.4,120.2,30.8z"/>
		</g>
	</g>
</g>
</svg>
