<?xml version="1.0" encoding="utf-8"?>
<!-- Generator: Adobe Illustrator 24.1.1, SVG Export Plug-In . SVG Version: 6.00 Build 0)  -->
<svg version="1.1" id="logo" xmlns="http://www.w3.org/2000/svg" xmlns:xlink="http://www.w3.org/1999/xlink" x="0px" y="0px"
	 viewBox="0 0 1000 1000" style="enable-background:new 0 0 1000 1000;" xml:space="preserve">
<g>
	<g>
		<g>
			<path style="fill:#3A2040;" d="M139.8,825.3c3.1,2.3,5.2,5.5,6.4,9.6h-5.3c-1-2.6-2.6-4.6-4.8-6.2c-2.2-1.5-4.9-2.3-8.1-2.3
				c-2.5,0-4.8,0.6-6.8,1.9c-2,1.2-3.6,3-4.7,5.3c-1.2,2.3-1.7,5-1.7,8.1c0,3.1,0.6,5.7,1.7,8c1.2,2.3,2.7,4,4.7,5.3
				c2,1.2,4.3,1.8,6.8,1.8c3.2,0,5.9-0.8,8.1-2.3c2.2-1.5,3.8-3.6,4.8-6.1h5.3c-1.2,4-3.3,7.2-6.4,9.6s-7,3.5-11.7,3.5
				c-3.6,0-6.9-0.8-9.7-2.5c-2.8-1.7-5-4-6.5-7c-1.6-3-2.3-6.4-2.3-10.2c0-3.9,0.8-7.3,2.3-10.3c1.6-3,3.7-5.4,6.5-7
				c2.8-1.7,6-2.5,9.7-2.5C132.8,821.8,136.7,823,139.8,825.3z"/>
			<path style="fill:#3A2040;" d="M184.9,824.3c2.9,1.7,5.2,4.1,6.8,7.1c1.7,3,2.5,6.5,2.5,10.3s-0.8,7.3-2.5,10.3
				c-1.7,3-3.9,5.4-6.8,7.1c-2.9,1.7-6.1,2.5-9.7,2.5c-3.6,0-6.9-0.8-9.8-2.5c-2.9-1.7-5.2-4.1-6.9-7.1c-1.7-3-2.5-6.5-2.5-10.3
				s0.8-7.3,2.5-10.3c1.7-3,3.9-5.4,6.9-7.1c2.9-1.7,6.2-2.5,9.8-2.5C178.7,821.7,182,822.6,184.9,824.3z M167.9,828.3
				c-2.1,1.2-3.8,3-5,5.3c-1.2,2.3-1.8,5-1.8,8.1c0,3.1,0.6,5.7,1.8,8.1c1.2,2.3,2.8,4.1,5,5.3c2.1,1.2,4.5,1.8,7.2,1.8
				c2.6,0,5-0.6,7.1-1.9c2.1-1.2,3.8-3,5-5.3c1.2-2.3,1.8-5,1.8-8c0-3.1-0.6-5.8-1.8-8.1c-1.2-2.3-2.8-4.1-5-5.3
				c-2.1-1.2-4.5-1.9-7.1-1.9C172.5,826.4,170.1,827,167.9,828.3z"/>
			<path style="fill:#3A2040;" d="M236.2,861.1h-5L211,830.4v30.7h-5v-38.9h5l20.2,30.8v-30.8h5V861.1z"/>
			<path style="fill:#3A2040;" d="M280,861.1h-5l-20.2-30.7v30.7h-5v-38.9h5L275,853v-30.8h5V861.1z"/>
			<path style="fill:#3A2040;" d="M298.6,826.3v13.3h14.8v3.9h-14.8V857H315v4.1h-21.5v-38.9H315v4.1H298.6z"/>
			<path style="fill:#3A2040;" d="M354.4,825.3c3.1,2.3,5.2,5.5,6.4,9.6h-5.3c-1-2.6-2.6-4.6-4.8-6.2c-2.2-1.5-4.9-2.3-8.1-2.3
				c-2.5,0-4.8,0.6-6.8,1.9c-2,1.2-3.6,3-4.7,5.3s-1.7,5-1.7,8.1c0,3.1,0.6,5.7,1.7,8c1.2,2.3,2.7,4,4.7,5.3c2,1.2,4.3,1.8,6.8,1.8
				c3.2,0,5.9-0.8,8.1-2.3c2.2-1.5,3.8-3.6,4.8-6.1h5.3c-1.2,4-3.3,7.2-6.4,9.6s-7,3.5-11.7,3.5c-3.6,0-6.9-0.8-9.7-2.5
				c-2.8-1.7-5-4-6.5-7c-1.6-3-2.3-6.4-2.3-10.2c0-3.9,0.8-7.3,2.3-10.3c1.6-3,3.7-5.4,6.5-7c2.8-1.7,6-2.5,9.7-2.5
				C347.4,821.8,351.4,823,354.4,825.3z"/>
			<path style="fill:#3A2040;" d="M394.8,822.2v4.1h-11v34.8h-5v-34.8h-11v-4.1H394.8z"/>
			<path style="fill:#3A2040;" d="M443.1,822.2v4.1h-17v13.5h14.4v3.9h-14.4v17.4h-5v-38.9H443.1z"/>
			<path style="fill:#3A2040;" d="M480.4,824.3c2.9,1.7,5.2,4.1,6.8,7.1c1.7,3,2.5,6.5,2.5,10.3s-0.8,7.3-2.5,10.3
				c-1.7,3-3.9,5.4-6.8,7.1c-2.9,1.7-6.1,2.5-9.7,2.5c-3.6,0-6.9-0.8-9.8-2.5c-2.9-1.7-5.2-4.1-6.9-7.1c-1.7-3-2.5-6.5-2.5-10.3
				s0.8-7.3,2.5-10.3c1.7-3,3.9-5.4,6.9-7.1c2.9-1.7,6.2-2.5,9.8-2.5C474.3,821.7,477.5,822.6,480.4,824.3z M463.5,828.3
				c-2.1,1.2-3.8,3-5,5.3c-1.2,2.3-1.8,5-1.8,8.1c0,3.1,0.6,5.7,1.8,8.1c1.2,2.3,2.8,4.1,5,5.3c2.1,1.2,4.5,1.8,7.2,1.8
				c2.6,0,5-0.6,7.1-1.9c2.1-1.2,3.8-3,5-5.3c1.2-2.3,1.8-5,1.8-8c0-3.1-0.6-5.8-1.8-8.1c-1.2-2.3-2.8-4.1-5-5.3
				c-2.1-1.2-4.5-1.9-7.1-1.9C468,826.4,465.6,827,463.5,828.3z"/>
			<path style="fill:#3A2040;" d="M522.2,861.1L512,845.2h-5.5v15.9h-5v-38.9h12.8c4.4,0,7.7,1.1,9.9,3.2c2.2,2.1,3.3,4.9,3.3,8.4
				c0,3.2-0.9,5.7-2.6,7.6c-1.8,1.9-4.3,3.1-7.7,3.6l10.6,16.1H522.2z M506.6,841.6h7.3c5.7,0,8.5-2.5,8.5-7.5s-2.8-7.5-8.5-7.5
				h-7.3V841.6z"/>
			<path style="fill:#3A2040;" d="M578.9,822.2v4.1h-11v34.8h-5v-34.8h-11v-4.1H578.9z"/>
			<path style="fill:#3A2040;" d="M618.6,822.2v38.9h-5.1v-18h-19.7v18h-5v-38.9h5v16.8h19.7v-16.8H618.6z"/>
			<path style="fill:#3A2040;" d="M637.1,826.3v13.3h14.8v3.9h-14.8V857h16.4v4.1h-21.5v-38.9h21.5v4.1H637.1z"/>
			<path style="fill:#3A2040;" d="M729.2,822.2l-9.9,38.9h-6.1l-9-31.8l-9,31.8h-6.1l-9.9-38.9h5.6l7.4,33l9.2-33h5.6l9.2,32.9
				l7.5-32.9H729.2z"/>
			<path style="fill:#3A2040;" d="M766.2,824.3c2.9,1.7,5.2,4.1,6.8,7.1c1.7,3,2.5,6.5,2.5,10.3s-0.8,7.3-2.5,10.3
				c-1.7,3-3.9,5.4-6.8,7.1c-2.9,1.7-6.1,2.5-9.7,2.5c-3.6,0-6.9-0.8-9.8-2.5c-2.9-1.7-5.2-4.1-6.9-7.1c-1.7-3-2.5-6.5-2.5-10.3
				s0.8-7.3,2.5-10.3c1.7-3,3.9-5.4,6.9-7.1c2.9-1.7,6.2-2.5,9.8-2.5C760.1,821.7,763.3,822.6,766.2,824.3z M749.2,828.3
				c-2.1,1.2-3.8,3-5,5.3c-1.2,2.3-1.8,5-1.8,8.1c0,3.1,0.6,5.7,1.8,8.1s2.8,4.1,5,5.3c2.1,1.2,4.5,1.8,7.2,1.8c2.6,0,5-0.6,7.1-1.9
				c2.1-1.2,3.8-3,5-5.3c1.2-2.3,1.8-5,1.8-8c0-3.1-0.6-5.8-1.8-8.1c-1.2-2.3-2.8-4.1-5-5.3c-2.1-1.2-4.5-1.9-7.1-1.9
				C753.8,826.4,751.4,827,749.2,828.3z"/>
			<path style="fill:#3A2040;" d="M807.9,861.1l-10.2-15.9h-5.5v15.9h-5v-38.9h12.8c4.4,0,7.7,1.1,9.9,3.2c2.2,2.1,3.3,4.9,3.3,8.4
				c0,3.2-0.9,5.7-2.6,7.6c-1.8,1.9-4.3,3.1-7.7,3.6l10.6,16.1H807.9z M792.3,841.6h7.3c5.7,0,8.5-2.5,8.5-7.5s-2.9-7.5-8.5-7.5
				h-7.3V841.6z"/>
			<path style="fill:#3A2040;" d="M829.8,857.2h13.8v3.9h-18.8v-38.9h5V857.2z"/>
			<path style="fill:#3A2040;" d="M884,851.9c-1.6,2.9-3.9,5.2-7,6.8c-3.1,1.6-6.8,2.4-11.1,2.4h-12.4v-38.9H866
				c4.3,0,8,0.8,11.1,2.3c3.1,1.6,5.4,3.8,7,6.7c1.6,2.9,2.4,6.4,2.4,10.3C886.4,845.6,885.6,849,884,851.9z M877.2,852.7
				c2.7-2.6,4-6.3,4-11c0-4.7-1.3-8.4-4-11.1c-2.7-2.6-6.6-3.9-11.7-3.9h-7v29.9h7C870.6,856.6,874.5,855.3,877.2,852.7z"/>
		</g>
	</g>
	<g>
		<g>
			<g>
				<g>
					<path style="fill:#F16B55;" d="M545.7,137.6c-29.6,2-60.2,2-91.6,0c-7.7,40.6-17.3,72.2-28.9,94.7l47.3-0.7
						c0,0-3.3-8.8-3.3-13.8c0-16.9,13.7-30.6,30.6-30.6c16.9,0,30.6,13.7,30.6,30.6c0,5-3.3,13.8-3.3,13.8l47.3,0.7
						C563,209.8,553.4,178.2,545.7,137.6z"/>
				</g>
				<g>
					<path style="fill:#F16B55;" d="M574.6,381.7l-47.3,0.7c0,0,3.3,8.8,3.3,13.8c0,16.9-13.7,30.6-30.6,30.6
						c-16.9,0-30.6-13.7-30.6-30.6c0-5,3.3-13.8,3.3-13.8l-47.3-0.7c11.6,22.4,21.2,54.1,28.9,94.7c31.4-2,62-2,91.6,0
						C553.4,435.7,563,404.1,574.6,381.7z"/>
				</g>
			</g>
			<g>
				<g>
					<path style="fill:#F16B55;" d="M330.5,261.1c2,29.6,2,60.2,0,91.6c40.6,7.7,72.2,17.3,94.7,28.9l-0.7-47.3
						c0,0-8.8,3.3-13.8,3.3c-16.9,0-30.6-13.7-30.6-30.6c0-16.9,13.7-30.6,30.6-30.6c5,0,13.8,3.3,13.8,3.3l0.7-47.3
						C402.8,243.9,371.1,253.5,330.5,261.1z"/>
				</g>
				<g>
					<path style="fill:#F16B55;" d="M574.6,232.3l0.7,47.3c0,0,8.8-3.3,13.8-3.3c16.9,0,30.6,13.7,30.6,30.6
						c0,16.9-13.7,30.6-30.6,30.6c-5,0-13.8-3.3-13.8-3.3l-0.7,47.3c22.4-11.6,54.1-21.2,94.7-28.9c-2-31.4-2-62,0-91.6
						C628.7,253.5,597,243.9,574.6,232.3z"/>
				</g>
			</g>
		</g>
		<g>
			<g>
				<path style="fill:#F16B55;" d="M459.7,756.4h-53.1c0,0-0.2-26.4-0.9-44.6c-8.1-0.5-16.4-0.5-24.6,0c-0.7,18.2-0.9,44.6-0.9,44.6
					H327c10.3-49.9,18.9-120.4,25.6-210.8c0,1.6,81.3,1.6,81.3,0C440.8,636,449.4,706.5,459.7,756.4z M404.2,687
					c-2.2-33.6-5.5-67.1-10.1-101.2h-1.3c-4.6,34.1-7.9,67.6-10.1,101.2C390,687.2,397,687.2,404.2,687z"/>
				<path style="fill:#F16B55;" d="M163.5,756.4h-53.1c0,0-0.2-26.4-0.9-44.6c-8.1-0.5-16.4-0.5-24.6,0c-0.7,18.2-0.9,44.6-0.9,44.6
					H30.8C41.1,706.5,49.7,636,56.5,545.6c0,1.6,81.3,1.6,81.3,0C144.6,636,153.1,706.5,163.5,756.4z M108,687
					c-2.2-33.6-5.5-67.1-10.1-101.2h-1.3C92,619.9,88.7,653.4,86.5,687C93.7,687.2,100.8,687.2,108,687z"/>
				<path style="fill:#F16B55;" d="M300.6,684.4c2,7.9,3.5,16.1,4.2,24.3l2.9,25.9c1.1,9.2,0.7,22,0.7,22h-51.2
					c0.4-16.1,0.4-31.2,0.4-44.2c0-25.9-8.9-44.4-23.8-47.2c0,28.4-2,58.9,0.9,91.4h-51.5c2.5,0,2.5-210.6,0-210.6h51.5
					c-3.3,39.2-1.3,71.5-1.1,97.1c12.1-0.8,17.8-15.1,20.2-30.7c0.9-5.1,3.8-56.4,3.2-66.3h51.9c0,0-0.9,14.9-2,24.8l-3.1,26.6
					c-2.4,23.3-10.3,50.2-37.5,55.6C285.2,656.5,296.4,668.3,300.6,684.4z"/>
				<path style="fill:#F16B55;" d="M480.5,756.7c2.4-27.1,2.4-52.8,0-76.6l1.5-0.5c5.5,10,11.8,18.7,19.3,26.1
					c7.5,7.2,14.5,10.8,21,10.8c8.6,0,13.6-5.1,13.6-13.6c0-4.6-1.5-9-4.4-13.3c-5.5-8.5-14.5-13.3-24.8-22.5
					c-5-4.6-9.6-9.5-14-14.3c-8.6-10.2-14.9-27.9-14.9-49.2c0-18.2,4.8-32.8,14.7-43.5c9.9-10.8,23-16.1,39.9-16.1
					c4.6,0,43.1,2.3,43.8,2c-2.2,20.7-2.2,42.8,0,66.3l-1.3,0.5c-13.4-16.1-29.6-24.1-41.2-24.1c-7,0-11,4.1-11,10.5
					c0,12.6,14.9,20.5,29.8,34.3c5,4.9,9.9,10,14.3,15.4c9,11,15.6,29.5,15.6,50.7c0,17.2-4.8,31.5-14.7,42.5s-23.7,16.6-41.4,16.6
					C521.7,758.7,480.5,756.7,480.5,756.7z"/>
				<path style="fill:#F16B55;" d="M609,546.1h55v210.6h-55C610.3,756.7,610.3,546.1,609,546.1z"/>
				<path style="fill:#F16B55;" d="M796.1,609.4l-1.1,0.8c-12.9-10-29.6-15.9-50.4-17.7c-0.7,16.1-0.9,36.4-0.2,60.7
					c15.3-0.5,28.5-3.8,39.7-9.7l0.9,0.8c-1.3,6.1-2,14.6-2,25.4c0.2,10.8,0.9,19.7,2,26.9l-0.9,0.8c-12.1-6.4-25-10.2-38.4-11.3
					c1.1,22.8,3.3,46.6,6.8,71h-57.9V545.6h101.7C794.4,566.3,794.2,587.6,796.1,609.4z"/>
				<g>
					<path style="fill:#F16B55;" d="M865.1,666.3l-60.4-120.2h61.2c0,0,11.6,64.4,22.1,85c10.9-20.5,19.7-85,19.7-85H969
						l-57.7,120.2c0.3,18.7,1.2,30.3,3,49l3.9,41.6h-60.3l4.2-41.6C863.9,696.6,864.8,685,865.1,666.3z"/>
				</g>
			</g>
		</g>
	</g>
</g>
</svg>
