<?xml version="1.0" encoding="utf-8"?>
<!-- Generator: Adobe Illustrator 25.0.1, SVG Export Plug-In . SVG Version: 6.00 Build 0)  -->
<svg version="1.1" id="Layer_1" xmlns="http://www.w3.org/2000/svg" xmlns:xlink="http://www.w3.org/1999/xlink" x="0px" y="0px"
	 viewBox="0 0 1000 250" style="enable-background:new 0 0 1000 250;" xml:space="preserve">
<path style="fill:#FE4414;" d="M838.7,201.7c-0.7-1.4,0.5-1,1-1.1c8-1.8,15.6-4.8,22.4-9.4c17.5-11.8,27.7-28.4,32.2-48.6
	c3.2-14.2,3-28.3-3.1-41.9c-4.5-10.1-11.2-18.4-21.3-23.4c-15.1-7.5-32.7-3.8-44.6,9.2c-19.9,21.5-19,58.2,1.9,78.6
	c1.3,1.3,2.7,2.4,4.4,3.9c-12,1.7-21.4-2.5-29.1-10.9c-8.1-8.9-11.8-19.6-12-31.4c-0.3-23.7,8-43.9,26.5-59.2
	c22.7-18.7,55.4-17.2,76.7,3c13.2,12.5,20.3,28,22.5,45.8c0.1,0.5-0.2,1.1,0.5,1.3c0,0.7,0,1.4,0,2c-0.8,3.4-0.8,6.8,0,10.2
	c0,0.8,0,1.7,0,2.5c-1,1.1-0.7,2.5-0.9,3.8c-5.1,34.2-32.8,60.7-67.4,64.6c-2.5,0.3-5-0.2-7.4,0.9
	C840.4,201.7,839.6,201.7,838.7,201.7z"/>
<path style="fill:#FE4414;" d="M83.1,127.8c1-1.6,0.8-3.5,1.2-5.3c3.3-13.8,14.7-23.8,29.7-26.1c15.6-2.3,31.7,6.1,37.6,20.4
	c10.3,24.8-7.9,47-30,48.1c-15.9,0.8-27.6-5.8-35-19.8c-1.7-3.2-2.4-6.7-2.9-10.2c-0.1-0.5,0.3-1.2-0.5-1.5
	C83.1,131.5,83.1,129.7,83.1,127.8z M118.8,152.3c12.4,0,21.5-9,21.5-21.5c0-12.5-8.8-21.8-21-21.8c-12.6-0.1-21.6,8.7-21.6,21.3
	C97.6,143.5,106.1,152.3,118.8,152.3z"/>
<path style="fill:#FE4415;" d="M916.9,129.8c-0.8-3.4-0.8-6.8,0-10.2C916.9,123.1,916.9,126.4,916.9,129.8z"/>
<path style="fill:#FE4414;" d="M842.4,48.5c-26.1,5.8-43,21.7-52.6,45.5c-6.1,15.2-8.1,31-3.7,47.1c2.9,10.6,8.3,19.7,16.9,26.6
	c16,12.9,37.7,10.9,52-4.9c10.6-11.7,14.8-25.7,14-41.3c-0.9-16.3-7.2-30.2-20.5-40.8c6.1-1.1,11.7-0.5,17,2
	c12,5.5,19,15.3,22.2,27.7c5,20,0.6,38.7-10.3,55.9c-8,12.7-19.1,21.9-33.6,26.3c-20.9,6.3-39.8,1.8-56.1-12.4
	c-15.2-13.3-23.1-30.6-24-50.6c-1.4-31.7,12.2-55.7,39.6-71.7C814.9,50.9,830,47.6,842.4,48.5z"/>
<path style="fill:#FE4414;" d="M594.3,130.5c0-10.3,0-20.5,0-30.8c0-1.8,0.4-2.5,2.4-2.4c9.9,0.3,19.9-0.6,29.8,0.5
	c12.1,1.3,19.6,12,17,23.7c-0.6,2.8-1.9,5.3-3.9,7.3c-0.7,0.7-1,1.2,0,1.9c6.4,4.8,7.6,11.4,5.9,18.7c-1.7,7.2-6.8,11.3-13.6,13.5
	c-2.3,0.7-4.6,1-7,1c-9.4,0-18.7-0.1-28.1,0c-2,0-2.4-0.5-2.4-2.4C594.4,151.2,594.3,140.8,594.3,130.5z M617.3,135.5
	c-3.1,0-5.6,0-8.2,0c-1.1,0-1.5,0.3-1.5,1.4c0,4.6,0,9.2,0,13.7c0,0.8,0,1.5,1.1,1.5c5.7-0.2,11.4,0.5,17.1-0.4
	c4.1-0.7,6.6-3.7,6.7-7.8c0.1-4-2.3-7.1-6.4-8.1C623.1,135.1,619.9,135.7,617.3,135.5z M607.6,117.4c0,2.2,0,4.4,0,6.6
	c0,1.2,0.1,1.8,1.6,1.8c4.2-0.1,8.3,0.1,12.5-0.1c5.3-0.2,8.6-3.3,8.6-8.1c0.1-5-3-8.1-8.6-8.3c-4.2-0.2-8.3,0-12.5-0.1
	c-1.4,0-1.7,0.5-1.7,1.8C607.7,113.1,607.6,115.3,607.6,117.4z"/>
<path style="fill:#FE4415;" d="M690.9,165.1c-10.3-0.2-18.5-4.4-24.5-12.8c-1-1.4-1.1-2.2,0.4-3.2c2.1-1.4,4.2-2.9,6.1-4.6
	c1.4-1.2,2.1-0.9,3.2,0.5c4.3,5.4,9.8,8.6,17,7.8c5.3-0.6,8.5-4.7,7-9c-0.7-2-2.2-3.4-4.1-4.3c-3.6-1.7-7.2-3.4-10.9-5
	c-3.1-1.4-6.1-3-8.8-5.1c-6-4.4-8.6-10.1-7.4-17.5c1.1-7,5.5-11.3,11.8-13.9c11.1-4.6,24.3-0.9,30.8,8.5c1.1,1.6,1.6,2.9-0.6,4
	c-0.6,0.3-1.1,0.8-1.6,1.2c-1.8,1.3-3.4,3.4-5.3,3.8c-2,0.3-2.8-2.7-4.4-3.9c-3.7-2.8-7.7-3.9-12.2-2.6c-2.4,0.7-4.2,2.1-4.6,4.8
	c-0.4,2.8,0.8,4.7,3.1,6.1c3.5,2.2,7.3,3.6,11,5.2c3.6,1.6,7,3.5,10.2,5.7c10.5,7.2,9.3,23.5-1,30.1
	C701.9,163.7,697,165.1,690.9,165.1z"/>
<path style="fill:#FE4415;" d="M269.8,165.1c-10.5-0.2-18.8-4.4-24.8-13.2c-0.8-1.1-0.8-1.8,0.4-2.6c2.2-1.5,4.4-3.2,6.5-4.9
	c1.3-1.1,2-0.8,3,0.4c4.1,5.1,9.3,8.5,16.2,8c1-0.1,2-0.2,3-0.5c2.9-0.8,4.8-2.7,5.2-5.7c0.4-3-1-5.4-3.6-6.7
	c-3.8-2-7.7-3.7-11.5-5.5c-3.6-1.7-7.1-3.7-10.2-6.1c-9.5-7.5-8-22.6,2.4-28.7c11.4-6.7,27.4-3.3,34.5,7.5c0.9,1.4,0.9,2.1-0.5,3
	c-2.1,1.4-4.2,3-6.1,4.7c-1.3,1.2-2,1.1-3.1-0.3c-3-4-7.1-6.3-12.3-6c-1.6,0.1-3,0.5-4.4,1.3c-3.7,2.2-4,7-0.6,9.6
	c3.2,2.5,7,3.7,10.7,5.3c3.7,1.6,7.2,3.4,10.6,5.6c12.3,7.8,10.4,26.4-2.9,32.4C278.4,164.3,274.7,165.1,269.8,165.1z"/>
<path style="fill:#FE4415;" d="M381.6,165.1c-10.4-0.1-18.7-4.4-24.7-12.9c-1-1.4-0.9-2.2,0.6-3.2c2.1-1.4,4.2-3,6.1-4.6
	c1.3-1.1,1.9-1,3,0.4c4.1,5.2,9.2,8.5,16.2,8c0.8-0.1,1.7-0.2,2.5-0.4c3.4-0.9,5.3-2.9,5.7-5.8c0.4-3.1-1-5.6-4.2-7.1
	c-3.9-1.9-7.8-3.7-11.8-5.5c-2.8-1.3-5.4-2.9-7.9-4.6c-11.6-7.8-10.3-25.2,3.3-31.1c9.3-4,23.9-3.4,31.9,8.4c1.1,1.6,1,2.5-0.6,3.6
	c-2.1,1.4-4.1,3-6.1,4.7c-1.1,0.9-1.7,0.9-2.5-0.3c-3.2-4.3-7.4-6.6-12.9-6.2c-4.3,0.3-7,3-6.8,6.7c0.1,2.2,1.3,3.6,3,4.7
	c3.5,2.2,7.3,3.6,11,5.3c3.1,1.4,6.1,2.9,9,4.8c6.8,4.5,9.7,10.7,8.4,18.7c-1.2,7.6-6.1,12.2-13.1,14.9
	C388.4,164.7,385,165.1,381.6,165.1z"/>
<path style="fill:#FE4415;" d="M228.1,163.9c-4.3,0-8.4-0.1-12.5,0c-1.3,0-1.8-0.5-2.2-1.6c-1.1-2.8-2.3-5.5-3.3-8.3
	c-0.5-1.4-1.1-2-2.7-2c-6.9,0.1-13.8,0.1-20.7,0c-1.3,0-2,0.4-2.4,1.6c-1,2.8-2.3,5.5-3.3,8.3c-0.5,1.4-1.2,2-2.8,1.9
	c-3.1-0.1-6.3,0-9.4,0c-2.8,0-2.8,0-1.8-2.5c4.7-11.1,9.4-22.1,14.2-33.2c4.3-10,8.6-20.1,12.8-30.2c0.6-1.4,1.3-2.1,2.8-1.9
	c1.3,0.2,2.5-0.4,3.3,1.4c9.2,21.8,18.5,43.5,27.7,65.2C227.9,163.1,227.9,163.3,228.1,163.9z M197.2,121.9
	c-2.6,6.3-4.8,12-7.1,17.6c-0.5,1.2,0,1.5,1.1,1.5c4.4,0,8.8,0,13.6,0C202.3,134.7,199.9,128.7,197.2,121.9z"/>
<path style="fill:#FE4415;" d="M511.9,163.9c3.8-9,7.5-17.6,11.2-26.3c5.6-13.2,11.2-26.3,16.8-39.5c0.6-1.5,1.4-2,3-2
	c1.5,0.1,2.6,0.1,3.3,1.9c9,21.2,18,42.4,27.1,63.5c0.8,2,0.5,2.4-1.6,2.3c-3.3-0.2-6.6-0.1-10,0c-1.3,0-2-0.4-2.4-1.7
	c-1.1-2.9-2.3-5.6-3.4-8.5c-0.5-1.2-1.1-1.6-2.4-1.6c-7,0.1-14,0.1-20.9,0c-1.4,0-1.9,0.5-2.4,1.7c-1.1,2.9-2.3,5.6-3.4,8.5
	c-0.4,1-0.9,1.6-2.2,1.6C520.5,163.8,516.4,163.9,511.9,163.9z M543.1,121.9c-2.7,6.6-5.1,12.7-7.6,19c4.7,0,9.1,0,13.4,0
	c0.8,0,2,0.3,1.4-1.2C548,134,545.6,128.2,543.1,121.9z"/>
<path style="fill:#FE4415;" d="M451.2,130.5c0-10.3,0-20.5,0-30.8c0-1.9,0.4-2.5,2.4-2.4c3.1,0.2,6.1,0.2,9.2,0
	c2-0.1,2.4,0.6,2.3,2.4c-0.1,16.4,0,32.7-0.1,49.1c0,2,0.4,2.7,2.6,2.7c8.2-0.1,16.3,0,24.5-0.1c2,0,2.2,0.7,1.9,2.4
	c-1.2,5.8-6.1,10-12.1,10.1c-9.5,0-19.1,0-28.6,0.1c-1.7,0-2.1-0.5-2.1-2.1C451.2,151.4,451.2,140.9,451.2,130.5z"/>
<path style="fill:#FE4415;" d="M332.1,136.1c0,8.5-0.1,17,0,25.5c0,2.2-0.7,2.5-2.7,2.1c-6.7-1.5-11.2-6.8-11.2-13.6
	c0-16.8,0-33.6,0-50.4c0-1.9,0.3-2.5,2.4-2.1c6.4,1.2,11.2,6.3,11.3,12.8C332.2,119,332.1,127.6,332.1,136.1
	C332.1,136.1,332.1,136.1,332.1,136.1z"/>
</svg>
